HIERARCHY
ROOT Hips
{
	OFFSET 0.000000 0.000000 0.000000
	CHANNELS 6 Xposition Yposition Zposition Xrotation Yrotation Zrotation
	JOINT LeftUpLeg_virtual
	{
		OFFSET 0.000000 0.000000 0.000000
		CHANNELS 3 Xrotation Yrotation Zrotation
		JOINT LeftUpLeg
		{
			OFFSET 13.026900 -6.336304 -1.092800
			CHANNELS 3 Xrotation Yrotation Zrotation
			JOINT LeftLeg
			{
				OFFSET 0.524474 -46.096886 9.782700
				CHANNELS 3 Xrotation Yrotation Zrotation
				JOINT LeftFoot
				{
					OFFSET -0.524474 -53.427422 -12.948200
					CHANNELS 3 Xrotation Yrotation Zrotation
					JOINT LeftToeBase
					{
						OFFSET 0.192200 -14.009700 16.364100
						CHANNELS 3 Xrotation Yrotation Zrotation
						JOINT LeftToe_End
						{
							OFFSET -1.784700 -0.561700 9.474800
							CHANNELS 3 Xrotation Yrotation Zrotation
							End Site
							{
								OFFSET 0 0 0
							}
						}
					}
				}
			}
		}
	}
	JOINT RightUpLeg_virtual
	{
		OFFSET 0.000000 0.000000 0.000000
		CHANNELS 3 Xrotation Yrotation Zrotation
		JOINT RightUpLeg
		{
			OFFSET -12.883000 -6.336304 -1.092800
			CHANNELS 3 Xrotation Yrotation Zrotation
			JOINT RightLeg
			{
				OFFSET -0.524587 -46.096825 9.782800
				CHANNELS 3 Xrotation Yrotation Zrotation
				JOINT RightFoot
				{
					OFFSET 0.524587 -53.427383 -12.948300
					CHANNELS 3 Xrotation Yrotation Zrotation
					JOINT RightToeBase
					{
						OFFSET -0.192200 -14.009700 16.364100
						CHANNELS 3 Xrotation Yrotation Zrotation
						JOINT RightToe_End
						{
							OFFSET 1.784700 -0.561700 9.474800
							CHANNELS 3 Xrotation Yrotation Zrotation
							End Site
							{
								OFFSET 0 0 0
							}
						}
					}
				}
			}
		}
	}
	JOINT Spine_virtual
	{
		OFFSET 0.000000 0.000000 0.000000
		CHANNELS 3 Xrotation Yrotation Zrotation
		JOINT Spine
		{
			OFFSET 0.072000 7.257294 -0.789700
			CHANNELS 3 Xrotation Yrotation Zrotation
			JOINT Spine1
			{
				OFFSET 0.000000 12.508769 -0.658067
				CHANNELS 3 Xrotation Yrotation Zrotation
				JOINT Spine1_split
				{
					OFFSET 0.000000 12.508769 -0.658067
					CHANNELS 3 Xrotation Yrotation Zrotation
					JOINT Spine2
					{
						OFFSET 0.000000 12.508769 -0.658067
						CHANNELS 3 Xrotation Yrotation Zrotation
						JOINT Neck_virtual
						{
							OFFSET 0.000000 0.000000 0.000000
							CHANNELS 3 Xrotation Yrotation Zrotation
							JOINT Neck
							{
								OFFSET 0.000000 14.033295 7.520400
								CHANNELS 3 Xrotation Yrotation Zrotation
								JOINT Head
								{
									OFFSET 0.000000 8.198502 5.703100
									CHANNELS 3 Xrotation Yrotation Zrotation
									JOINT HeadTop_End
									{
										OFFSET 0.000000 17.760803 13.332701
										CHANNELS 3 Xrotation Yrotation Zrotation
										End Site
										{
											OFFSET 0 0 0
										}
									}
								}
							}
						}
						JOINT LeftShoulder_virtual
						{
							OFFSET 0.000000 0.000000 0.000000
							CHANNELS 3 Xrotation Yrotation Zrotation
							JOINT LeftShoulder
							{
								OFFSET 6.292450 5.785301 -0.669000
								CHANNELS 3 Xrotation Yrotation Zrotation
								JOINT LeftShoulder_split
								{
									OFFSET 6.292450 5.785301 -0.669000
									CHANNELS 3 Xrotation Yrotation Zrotation
									JOINT LeftArm
									{
										OFFSET 13.907140 -6.093903 1.965100
										CHANNELS 3 Xrotation Yrotation Zrotation
										JOINT LeftForeArm
										{
											OFFSET 34.140198 0.000000 0.000000
											CHANNELS 3 Xrotation Yrotation Zrotation
											JOINT LeftHand
											{
												OFFSET 40.960209 0.000000 0.000000
												CHANNELS 3 Xrotation Yrotation Zrotation
												End Site
												{
													OFFSET 0 0 0
												}
											}
										}
									}
								}
							}
						}
						JOINT RightShoulder_virtual
						{
							OFFSET 0.000000 0.000000 0.000000
							CHANNELS 3 Xrotation Yrotation Zrotation
							JOINT RightShoulder
							{
								OFFSET -6.292450 5.785301 -0.669000
								CHANNELS 3 Xrotation Yrotation Zrotation
								JOINT RightShoulder_split
								{
									OFFSET -6.292450 5.785301 -0.669000
									CHANNELS 3 Xrotation Yrotation Zrotation
									JOINT RightArm
									{
										OFFSET -13.907140 -6.093903 1.965100
										CHANNELS 3 Xrotation Yrotation Zrotation
										JOINT RightForeArm
										{
											OFFSET -34.140198 0.000000 0.000000
											CHANNELS 3 Xrotation Yrotation Zrotation
											JOINT RightHand
											{
												OFFSET -40.960209 0.000000 0.000000
												CHANNELS 3 Xrotation Yrotation Zrotation
												End Site
												{
													OFFSET 0 0 0
												}
											}
										}
									}
								}
							}
						}
					}
				}
			}
		}
	}
}
MOTION
Frames: 11
Frame Time: 0.03333333
-23.456131 95.184013 -21.691229 0.000000 0.000000 0.000000 35.009268 4.274398 -0.824033 -63.078143 -13.277955 21.203484 32.536344 -11.047354 2.983963 5.439353 18.915975 -34.413618 2.624951 -6.844834 0.797086 0.000000 0.000000 0.000000 36.022657 1.984292 -0.633556 -60.213213 -6.816043 -18.179016 44.200449 7.044022 -6.563968 -14.422776 -17.964431 23.992301 0.607005 6.873188 -1.678756 0.000000 0.000000 0.000000 38.086006 5.458064 -3.683804 14.980476 3.239402 2.317628 4.758481 1.638899 1.943610 0.079561 -0.261775 0.119233 0.000000 0.000000 0.000000 6.119116 3.447521 2.073371 -1.749634 -1.723187 -0.557947 -3.064244 -29.999372 -8.436683 0.000000 0.000000 0.000000 4.368072 2.371646 0.682643 -0.610425 -21.606441 -3.274606 3.749990 3.147681 -5.949517 19.771948 -20.794019 -49.777876 -7.758631 -67.342865 -4.193363 0.000000 0.000000 0.000000 6.721192 2.938807 2.211987 1.547748 22.251609 5.986806 -3.890381 -0.705036 4.790220 12.030226 46.336854 13.066096 -23.046865 23.624253 11.721904 0.000000 0.000000 0.000000 
-22.451614 93.589989 -21.961435 0.000000 0.000000 0.000000 37.499070 5.522605 -0.512383 -66.807310 -13.415642 19.837801 34.899395 -11.347706 2.994514 4.952042 18.074545 -34.267807 1.531927 -6.879243 0.748020 0.000000 0.000000 0.000000 38.635614 2.612812 -0.061676 -63.597367 -6.482768 -19.515141 46.174401 7.792041 -7.106257 -14.768133 -17.958297 25.224182 -0.225633 7.091447 -1.957453 0.000000 0.000000 0.000000 40.810753 6.251512 -3.161307 15.643044 3.824329 2.533265 4.907360 1.782152 2.027425 0.045059 -0.227280 0.111333 0.000000 0.000000 0.000000 6.286191 3.545013 2.120560 -2.365969 -1.657394 -0.588518 -4.564925 -29.608358 -9.886169 0.000000 0.000000 0.000000 4.524005 2.492681 0.799930 -0.587489 -22.616104 -2.847513 3.862872 3.127807 -5.982424 19.885577 -21.232429 -49.310356 -10.637269 -68.494674 -7.056217 0.000000 0.000000 0.000000 6.795155 3.037421 2.303658 2.362371 22.845272 4.812969 -4.035351 -0.566317 4.661359 8.950561 46.509599 11.238619 -24.052308 24.132102 11.888468 0.000000 0.000000 0.000000 
-21.344753 91.987358 -22.039259 0.000000 0.000000 0.000000 39.996225 7.060194 -0.028544 -70.315752 -13.388055 18.289904 36.887120 -11.550670 2.871153 4.184437 17.339000 -33.827191 0.457538 -6.884583 0.638432 0.000000 0.000000 0.000000 41.044362 3.531345 0.689909 -66.846098 -6.209614 -21.268548 48.493537 8.612336 -7.703448 -15.437754 -18.070795 26.556937 -0.799859 7.372986 -2.277121 0.000000 0.000000 0.000000 43.468212 7.409082 -2.512331 16.193340 4.312237 2.715336 5.089365 1.964381 2.044584 0.040970 -0.211831 0.105342 0.000000 0.000000 0.000000 6.462422 3.690468 2.123875 -2.713004 -1.600992 -0.347997 -6.362532 -29.454815 -11.327462 0.000000 0.000000 0.000000 4.687404 2.649920 0.882201 -0.580684 -23.565452 -2.389337 4.194216 2.737373 -5.919597 20.795230 -22.663505 -49.046397 -13.446668 -69.354895 -9.908006 0.000000 0.000000 0.000000 6.878466 3.177839 2.347012 3.145772 23.292294 3.826822 -4.297798 -0.466260 4.657153 4.779042 46.468185 10.239150 -24.864744 24.612505 11.832574 0.000000 0.000000 0.000000 
-20.199429 90.211845 -21.940630 0.000000 0.000000 0.000000 42.321604 8.813868 0.569442 -73.651712 -13.295369 16.725666 38.822129 -11.767635 2.627894 3.245932 16.745004 -33.243767 -0.638558 -6.853840 0.474137 0.000000 0.000000 0.000000 43.197128 4.788746 1.497061 -69.830700 -5.831174 -23.321138 51.170572 9.404650 -8.348355 -16.586366 -18.503700 27.710392 -0.806967 7.672843 -2.536401 0.000000 0.000000 0.000000 45.910909 8.855565 -1.807197 16.675395 4.687045 2.874876 5.347034 2.185102 1.996989 0.044436 -0.197114 0.098485 0.000000 0.000000 0.000000 6.685078 3.878636 2.079189 -2.843294 -1.558525 0.158445 -8.422830 -29.587020 -12.701431 0.000000 0.000000 0.000000 4.892055 2.839708 0.915580 -0.583918 -24.319061 -1.844158 4.605262 2.293007 -5.741928 22.137514 -24.655547 -48.900094 -15.754356 -69.861347 -12.263646 0.000000 0.000000 0.000000 7.013566 3.349351 2.329601 3.862513 23.654053 3.083494 -4.572486 -0.507234 4.814317 0.380835 46.132412 9.331208 -25.638684 25.493102 11.854231 0.000000 0.000000 0.000000 
-19.085922 88.146210 -21.678267 0.000000 0.000000 0.000000 44.316190 10.695170 1.212476 -76.989872 -13.261167 15.265616 41.203857 -12.043550 2.320642 2.106892 16.310256 -32.538765 -1.581194 -6.797256 0.265436 0.000000 0.000000 0.000000 45.058331 6.402491 2.217066 -72.371291 -5.188715 -25.462424 54.262561 10.093695 -9.039840 -18.110504 -19.346869 28.609868 -0.714671 7.955066 -2.616747 0.000000 0.000000 0.000000 48.053536 10.470800 -1.140318 17.151396 4.944549 3.037933 5.732480 2.434072 1.906633 0.044410 -0.192905 0.100059 0.000000 0.000000 0.000000 6.979859 4.090952 1.985549 -2.864688 -1.531615 0.861694 -10.688875 -29.949396 -13.937808 0.000000 0.000000 0.000000 5.176487 3.042185 0.906944 -0.566483 -24.755887 -1.101943 4.937089 1.961950 -5.479651 23.449006 -26.674716 -48.773903 -17.392699 -70.028427 -13.884847 0.000000 0.000000 0.000000 7.251128 3.534211 2.261657 4.497729 24.030559 2.567510 -4.839394 -0.685711 5.148205 -3.325919 45.571756 7.683168 -26.506228 26.930328 12.273165 0.000000 0.000000 0.000000 
-18.040085 85.758484 -21.298651 0.000000 0.000000 0.000000 45.910927 12.559219 1.792463 -80.324835 -13.418396 14.019849 44.232705 -12.507023 2.029055 0.866697 15.967744 -31.857256 -2.379782 -6.721803 0.079512 0.000000 0.000000 0.000000 46.623271 8.276898 2.730813 -74.382024 -4.291038 -27.534581 57.839422 10.653805 -9.786000 -19.746174 -20.620657 29.343442 -1.090163 8.201122 -2.427706 0.000000 0.000000 0.000000 49.849565 12.101955 -0.605101 17.687513 5.090836 3.232644 6.275100 2.699940 1.797146 0.062375 -0.208062 0.110080 0.000000 0.000000 0.000000 7.383566 4.308911 1.870319 -2.912581 -1.516396 1.685447 -13.141495 -30.489900 -15.048462 0.000000 0.000000 0.000000 5.586332 3.242196 0.875810 -0.525843 -24.768450 -0.158554 5.105293 1.881127 -5.220274 24.276757 -28.404303 -48.690083 -18.306983 -69.992473 -14.676668 0.000000 0.000000 0.000000 7.636698 3.719119 2.160800 5.060283 24.552184 2.242236 -5.142844 -1.051483 5.666875 -5.909066 44.844184 4.884240 -27.470746 28.513017 13.141222 0.000000 0.000000 0.000000 
-17.096062 83.062393 -20.837065 0.000000 0.000000 0.000000 47.128647 14.329795 2.214079 -83.621022 -13.791571 13.052182 47.724632 -13.116982 1.775437 -0.454149 15.700467 -31.336860 -3.074861 -6.619579 -0.085212 0.000000 0.000000 0.000000 47.880425 10.164947 3.035238 -75.841498 -3.242257 -29.397015 61.667804 11.061364 -10.568097 -21.497148 -22.307652 29.876480 -1.873444 8.393964 -1.981808 0.000000 0.000000 0.000000 51.263339 13.652772 -0.213431 18.316016 5.133873 3.493105 6.964516 2.958968 1.694667 0.054354 -0.210166 0.126361 0.000000 0.000000 0.000000 7.903618 4.512919 1.769788 -3.084065 -1.524824 2.551803 -15.754960 -31.143812 -16.042294 0.000000 0.000000 0.000000 6.139615 3.433051 0.842604 -0.486068 -24.308186 0.873066 5.172686 1.870068 -4.931283 24.497660 -29.856994 -48.641889 -18.541911 -69.967126 -14.761366 0.000000 0.000000 0.000000 8.176020 3.897597 2.055928 5.576205 25.288611 1.995035 -5.421076 -1.402061 6.065675 -7.716098 44.045725 1.185334 -28.529582 29.624668 14.339212 0.000000 0.000000 0.000000 
-16.227470 80.233353 -20.301741 0.000000 0.000000 0.000000 48.075499 15.964975 2.446428 -86.765778 -14.305607 12.347584 51.398307 -13.832952 1.623161 -1.727253 15.492529 -31.102083 -3.842471 -6.493726 -0.196943 0.000000 0.000000 0.000000 48.839350 11.860064 3.167276 -76.779017 -2.219366 -31.052472 65.576701 11.311609 -11.327971 -23.538738 -24.290067 30.043034 -2.724242 8.539740 -1.342102 0.000000 0.000000 0.000000 52.413857 15.106292 0.022008 19.018069 5.094400 3.820924 7.778819 3.200386 1.614324 0.031397 -0.209773 0.132696 0.000000 0.000000 0.000000 8.512595 4.697226 1.712665 -3.433945 -1.578004 3.371944 -18.432089 -31.855118 -16.933180 0.000000 0.000000 0.000000 6.835419 3.606479 0.820574 -0.454408 -23.491934 1.927060 5.192692 1.766593 -4.684807 24.188540 -31.216471 -48.716311 -18.452321 -70.160960 -14.559948 0.000000 0.000000 0.000000 8.857478 4.074882 1.979080 6.080092 26.243195 1.766706 -5.836598 -1.672026 6.338143 -9.466839 43.246921 -2.753218 -29.569887 29.821822 15.628697 0.000000 0.000000 0.000000 
-15.415927 77.476326 -19.674513 0.000000 0.000000 0.000000 48.896792 17.421171 2.450769 -89.566395 -14.846652 11.870598 54.880447 -14.616595 1.613137 -2.805162 15.369239 -31.229568 -4.698242 -6.359360 -0.211398 0.000000 0.000000 0.000000 49.593218 13.197424 3.208500 -77.305652 -1.346341 -32.534295 69.397454 11.432315 -11.998364 -25.765309 -26.365386 29.913083 -3.484958 8.675448 -0.643149 0.000000 0.000000 0.000000 53.386309 16.428306 0.123437 19.728390 4.985009 4.192503 8.661523 3.411770 1.564200 0.018602 -0.215010 0.109285 0.000000 0.000000 0.000000 9.171746 4.855293 1.715170 -3.930156 -1.683774 4.096020 -21.003889 -32.702748 -17.723625 0.000000 0.000000 0.000000 7.626807 3.759575 0.813130 -0.439613 -22.472072 2.889517 5.367479 1.384159 -4.452798 23.362174 -32.655455 -49.029970 -18.133684 -70.566448 -14.285480 0.000000 0.000000 0.000000 9.636535 4.245003 1.939140 6.588259 27.268407 1.465790 -6.327880 -1.706316 6.386603 -11.925115 42.498605 -6.036793 -30.630113 29.256859 16.843680 0.000000 0.000000 0.000000 
-14.734794 74.989349 -18.974028 0.000000 0.000000 0.000000 49.650107 18.612233 2.300149 -91.911178 -15.316361 11.590461 57.884296 -15.315965 1.690367 -3.716215 15.427900 -31.536650 -5.307245 -6.219977 -0.174869 0.000000 0.000000 0.000000 50.212532 14.138925 3.211636 -77.506371 -0.632178 -33.808251 72.927979 11.513127 -12.548454 -27.894308 -28.314522 29.752454 -4.115078 8.842805 -0.021320 0.000000 0.000000 0.000000 54.317756 17.635475 0.067714 20.360780 4.825267 4.570869 9.553133 3.582327 1.537109 0.002430 -0.223258 0.088254 0.000000 0.000000 0.000000 9.833980 4.982546 1.764910 -4.474274 -1.842388 4.710581 -23.245678 -33.706089 -18.373284 0.000000 0.000000 0.000000 8.450838 3.886468 0.813704 -0.427934 -21.463627 3.721393 5.481385 0.723109 -4.261001 22.235737 -34.085198 -49.631867 -17.994883 -71.092406 -14.390199 0.000000 0.000000 0.000000 10.441565 4.400720 1.938540 7.087180 28.181446 1.045219 -6.802116 -1.516661 6.256531 -15.424669 41.951087 -7.969534 -31.930287 28.689031 18.113407 0.000000 0.000000 0.000000 
-14.256682 72.918884 -18.258631 0.000000 0.000000 0.000000 50.386063 19.435674 2.110929 -93.746170 -15.700790 11.416506 60.316342 -15.827333 1.853686 -4.537785 15.782177 -31.757675 -5.427134 -6.098269 -0.096300 0.000000 0.000000 0.000000 50.838413 14.784634 3.159122 -77.440070 -0.045185 -34.829648 75.922989 11.676224 -12.987641 -29.694886 -29.962486 29.858005 -4.729579 9.072078 0.441031 0.000000 0.000000 0.000000 55.296860 18.672550 -0.147272 20.820387 4.638021 4.911621 10.395975 3.706572 1.513673 0.005048 -0.249114 0.076313 0.000000 0.000000 0.000000 10.460845 5.079239 1.827555 -4.952483 -2.028042 5.212121 -24.971353 -34.919858 -18.857693 0.000000 0.000000 0.000000 9.236771 3.982235 0.806155 -0.375324 -20.663207 4.444421 5.602761 0.006892 -4.117957 20.883968 -35.208894 -50.566138 -18.515982 -71.609903 -15.333732 0.000000 0.000000 0.000000 11.217694 4.525277 1.953197 7.532718 28.786348 0.521132 -7.359649 -1.400033 6.221443 -19.569373 41.602228 -8.286182 -33.669445 29.019807 19.674671 0.000000 0.000000 0.000000 
